<?xml version="1.0" encoding="utf-8"?>
<!-- Generator: Adobe Illustrator 21.0.0, SVG Export Plug-In . SVG Version: 6.00 Build 0)  -->
<svg version="1.1" id="Layer_1" xmlns="http://www.w3.org/2000/svg" xmlns:xlink="http://www.w3.org/1999/xlink" x="0px" y="0px"
	 viewBox="0 0 405.1 286.9" style="enable-background:new 0 0 405.1 286.9;" xml:space="preserve">
<style type="text/css">
	.st0{fill:#B0B8B9;}
	.st1{fill:#62B9B0;}
	.st2{fill:#ECECEC;}
	.st3{fill:#FFFFFF;}
	.st4{font-family:'OpenSans-Bold';}
	.st5{font-size:28.1653px;}
</style>
<path class="st0" d="M393.2,286.9H12c-6.6,0-12-5.4-12-12V12C0,5.4,5.4,0,12,0h381.1c6.6,0,12,5.4,12,12v262.9
	C405.2,281.5,399.8,286.9,393.2,286.9z"/>
<path class="st1" d="M18.2,44.9h369.6c7,0,12.7,4,12.7,8.9v218.3c0,4.9-5.7,8.9-12.7,8.9H18.2c-7,0-12.7-4-12.7-8.9V53.8
	C5.5,48.9,10.9,44.9,18.2,44.9L18.2,44.9z"/>
<circle class="st2" cx="23.4" cy="25.4" r="4.8"/>
<circle class="st2" cx="41.5" cy="25.4" r="4.8"/>
<circle class="st2" cx="59.6" cy="25.4" r="4.8"/>
<path class="st2" d="M382,28.3h-14.7c-1.8,0-3.2-1.4-3.2-3.2l0,0c0-1.8,1.4-3.2,3.2-3.2H382c1.8,0,3.2,1.4,3.2,3.2l0,0
	C385.3,26.9,383.8,28.3,382,28.3z"/>
<text transform="matrix(1 0 0 1 126.1702 166.5663)" class="st3 st4 st5">Your image</text>
</svg>
