<?xml version="1.0" encoding="utf-8"?>
<!-- Generator: Adobe Illustrator 21.0.0, SVG Export Plug-In . SVG Version: 6.00 Build 0)  -->
<svg version="1.1" id="bold" xmlns="http://www.w3.org/2000/svg" xmlns:xlink="http://www.w3.org/1999/xlink" x="0px" y="0px"
	 viewBox="0 0 512 512" style="enable-background:new 0 0 512 512;" xml:space="preserve">
<style type="text/css">
	.st0{fill:#76C7C0;}
</style>
<path class="st0" d="M320,42.7H192c-11.8,0-21.3-9.6-21.3-21.3S180.2,0,192,0h128c11.8,0,21.3,9.6,21.3,21.3S331.8,42.7,320,42.7z"
	/>
<path class="st0" d="M371.6,512H159.4c-66.7,0-113.6-35.7-116.6-88.8c-1.2-20.8,4.2-40.8,15.7-58l122.2-177.7
	c7.3-10.7,11.2-23.3,11.2-36.3V32c0-11.8,9.6-21.3,21.3-21.3s21.3,9.6,21.3,21.3v119.3c0,21.7-6.5,42.6-18.8,60.5l-122,177.4
	c-6.1,9.2-9.1,20.2-8.4,31.6c1.7,29.5,30.7,48.6,74,48.6h212.2c28.8,0,53.4-21.8,55-48.6c0.7-11.5-2.3-22.5-8.6-31.9L296.1,211.7
	c-12.3-17.9-18.8-38.8-18.8-60.5V32c0-11.8,9.6-21.3,21.3-21.3S320,20.2,320,32v119.3c0,13,3.9,25.6,11.3,36.3l122,177.4
	c11.6,17.4,17,37.5,15.9,58.2C466.3,473,423.5,512,371.6,512L371.6,512z"/>
<path class="st0" d="M359.4,426.7H152.6c-13.6,0-24.6-10.6-24.6-23.6c0-5.1,1.7-9.9,4.8-14c0.3-0.4,0.6-0.7,0.9-1.1l60.3-78.6
	c2.9-3.7,7.2-6,11.9-6.2c3.9-0.2,7.6-1.1,10.5-2.5l13.3-6.6c16-7.8,36.5-7.8,52.4-0.1l13.6,6.8c2.8,1.3,6.5,2.2,10.4,2.5
	c4.7,0.2,9,2.5,11.9,6.2l60.3,78.6c0.3,0.3,0.6,0.7,0.9,1.1c3.1,4.1,4.8,9,4.8,14.1C384,416.1,372.9,426.7,359.4,426.7L359.4,426.7z
	"/>
</svg>
