<?xml version="1.0" encoding="utf-8"?>
<!-- Generator: Adobe Illustrator 21.0.0, SVG Export Plug-In . SVG Version: 6.00 Build 0)  -->
<svg version="1.1" id="Capa_1" xmlns="http://www.w3.org/2000/svg" xmlns:xlink="http://www.w3.org/1999/xlink" x="0px" y="0px"
	 viewBox="0 0 477.9 341.3" style="enable-background:new 0 0 477.9 341.3;" xml:space="preserve">
<style type="text/css">
	.st0{fill:#AFCFCD;}
</style>
<g>
	<g>
		<path class="st0" d="M426.7,0H51.2C22.9,0,0,22.9,0,51.2v238.9c0,28.3,22.9,51.2,51.2,51.2h375.5c28.3,0,51.2-22.9,51.2-51.2V51.2
			C477.9,22.9,454.9,0,426.7,0z M443.7,197.7L336.3,90.3c-6.7-6.7-17.5-6.7-24.1,0L170.7,231.9l-56.2-56.2c-6.7-6.7-17.5-6.7-24.1,0
			l-56.2,56.2V51.2c0-9.4,7.6-17.1,17.1-17.1h375.5c9.4,0,17.1,7.6,17.1,17.1L443.7,197.7L443.7,197.7z"/>
	</g>
</g>
<g>
	<g>
		<circle class="st0" cx="153.6" cy="119.5" r="51.2"/>
	</g>
</g>
</svg>
