<svg id="Capa_1" enable-background="new 0 0 511.958 511.958" height="512" viewBox="0 0 511.958 511.958" width="512" xmlns="http://www.w3.org/2000/svg"><g><path d="m472.068 101.511c-13.77-13.769-31.187-22.479-50.089-25.246-2.769-18.901-11.479-36.321-25.247-50.089-34.922-34.923-91.77-34.898-126.723.054-16.622 16.622-25.783 38.79-25.796 62.333l-.642 101.55-225.505 225.507c-2.813 2.813-4.394 6.628-4.394 10.606s1.58 7.793 4.394 10.606l44.429 44.429c5.857 5.858 15.355 5.858 21.213 0l7.247-7.247 33.55 33.55c2.929 2.929 6.768 4.394 10.606 4.394s7.678-1.465 10.606-4.394l39.937-39.936c2.813-2.813 4.394-6.628 4.394-10.606s-1.58-7.793-4.394-10.606l-21.076-21.076 19.921-19.92 7.732 7.732c5.857 5.858 15.355 5.858 21.213 0l43.031-43.031c5.858-5.858 5.858-15.355 0-21.213l-19.774-19.774 73.015-73.014 100.336-1.764c23.496-.046 44.918-9.077 61.961-26.12 16.93-16.93 26.261-39.433 26.273-63.365.012-23.94-9.299-46.44-26.218-63.36zm-21.269 105.51c-11.332 11.332-25.474 17.326-40.898 17.333-.085 0-.171.001-.256.002l-106.516 1.873c-3.887.068-7.595 1.643-10.343 4.391l-87.905 87.905c-5.858 5.858-5.858 15.355 0 21.213l19.774 19.774-21.818 21.818-7.732-7.732c-5.857-5.858-15.355-5.858-21.213 0l-41.134 41.134c-5.858 5.858-5.858 15.355 0 21.213l21.076 21.076-18.724 18.723-33.55-33.55c-2.813-2.813-6.628-4.394-10.606-4.394s-7.794 1.581-10.606 4.394l-7.247 7.247-23.216-23.215 219.254-219.253c2.79-2.79 4.368-6.566 4.394-10.512l.681-107.794c.009-15.85 5.891-30.104 17.009-41.223 23.256-23.255 61.072-23.281 84.297-.055 11.407 11.406 17.591 26.592 17.412 42.758-.045 4.035 1.539 7.918 4.393 10.772 2.853 2.854 6.709 4.414 10.771 4.393.228-.002.453-.004.68-.004 15.912 0 30.833 6.17 42.08 17.416 11.248 11.249 17.438 26.21 17.431 42.129-.01 15.925-6.22 30.9-17.488 42.168z"/><path d="m313.321 116.658c-18.821 18.821-18.821 49.444 0 68.265 9.41 9.411 21.771 14.116 34.132 14.116s24.723-4.705 34.133-14.116c9.117-9.117 14.139-21.239 14.139-34.133s-5.021-25.015-14.139-34.132c-18.82-18.821-49.444-18.822-68.265 0zm47.052 47.052c-7.125 7.123-18.714 7.123-25.839 0-7.124-7.124-7.124-18.715 0-25.839 3.563-3.562 8.241-5.343 12.92-5.343s9.356 1.781 12.919 5.343c7.124 7.124 7.124 18.715 0 25.839z"/></g></svg>