<?xml version="1.0" encoding="utf-8"?>
<!-- Generator: Adobe Illustrator 21.0.0, SVG Export Plug-In . SVG Version: 6.00 Build 0)  -->
<svg version="1.1" id="Capa_1" xmlns="http://www.w3.org/2000/svg" xmlns:xlink="http://www.w3.org/1999/xlink" x="0px" y="0px"
	 viewBox="0 0 512 512" style="enable-background:new 0 0 512 512;" xml:space="preserve">
<style type="text/css">
	.st0{fill:#E2534B;}
</style>
<g>
	<path class="st0" d="M472.1,101.5C458.3,87.7,440.9,79,422,76.3c-2.8-18.9-11.5-36.3-25.2-50.1C361.8-8.7,305-8.7,270,26.2
		c-16.6,16.6-25.8,38.8-25.8,62.3l-0.6,101.6L18.1,415.7c-2.8,2.8-4.4,6.6-4.4,10.6c0,4,1.6,7.8,4.4,10.6l44.4,44.4
		c5.9,5.9,15.4,5.9,21.2,0l7.2-7.2l33.6,33.6c2.9,2.9,6.8,4.4,10.6,4.4c3.8,0,7.7-1.5,10.6-4.4l39.9-39.9c2.8-2.8,4.4-6.6,4.4-10.6
		c0-4-1.6-7.8-4.4-10.6l-21.1-21.1l19.9-19.9l7.7,7.7c5.9,5.9,15.4,5.9,21.2,0l43-43c5.9-5.9,5.9-15.4,0-21.2l-19.8-19.8l73-73
		l100.3-1.8c23.5,0,44.9-9.1,62-26.1c16.9-16.9,26.3-39.4,26.3-63.4C498.3,140.9,489,118.4,472.1,101.5L472.1,101.5z M450.8,207
		c-11.3,11.3-25.5,17.3-40.9,17.3c-0.1,0-0.2,0-0.3,0l-106.5,1.9c-3.9,0.1-7.6,1.6-10.3,4.4l-87.9,87.9c-5.9,5.9-5.9,15.4,0,21.2
		l19.8,19.8l-21.8,21.8l-7.7-7.7c-5.9-5.9-15.4-5.9-21.2,0l-41.1,41.1c-5.9,5.9-5.9,15.4,0,21.2l21.1,21.1l-18.7,18.7l-33.6-33.6
		c-2.8-2.8-6.6-4.4-10.6-4.4s-7.8,1.6-10.6,4.4l-7.2,7.2l-23.2-23.2L269.2,207c2.8-2.8,4.4-6.6,4.4-10.5l0.7-107.8
		c0-15.9,5.9-30.1,17-41.2c23.3-23.3,61.1-23.3,84.3-0.1C387,58.8,393.1,74,393,90.2c0,4,1.5,7.9,4.4,10.8c2.9,2.9,6.7,4.4,10.8,4.4
		c0.2,0,0.5,0,0.7,0c15.9,0,30.8,6.2,42.1,17.4c11.2,11.2,17.4,26.2,17.4,42.1C468.3,180.8,462.1,195.8,450.8,207L450.8,207z"/>
	<path class="st0" d="M313.3,116.7c-18.8,18.8-18.8,49.4,0,68.3c9.4,9.4,21.8,14.1,34.1,14.1s24.7-4.7,34.1-14.1
		c9.1-9.1,14.1-21.2,14.1-34.1c0-12.9-5-25-14.1-34.1C362.8,97.8,332.2,97.8,313.3,116.7L313.3,116.7z M360.4,163.7
		c-7.1,7.1-18.7,7.1-25.8,0c-7.1-7.1-7.1-18.7,0-25.8c3.6-3.6,8.2-5.3,12.9-5.3c4.7,0,9.4,1.8,12.9,5.3
		C367.5,145,367.5,156.6,360.4,163.7L360.4,163.7z"/>
</g>
</svg>
