<?xml version="1.0" encoding="utf-8"?>
<!-- Generator: Adobe Illustrator 21.0.0, SVG Export Plug-In . SVG Version: 6.00 Build 0)  -->
<svg version="1.1" id="Capa_1" xmlns="http://www.w3.org/2000/svg" xmlns:xlink="http://www.w3.org/1999/xlink" x="0px" y="0px"
	 viewBox="0 0 512 512" style="enable-background:new 0 0 512 512;" xml:space="preserve">
<style type="text/css">
	.st0{fill:#FFFFFF;}
</style>
<g>
	<g>
		<path class="st0" d="M6.4,270.2L199.9,466c4.3,4.4,10,6.6,15.7,6.6c5.7,0,11.4-2.1,15.7-6.4c8.7-8.6,8.8-22.7,0.2-31.4L53.6,254.8
			L233.5,77c8.7-8.6,8.8-22.7,0.2-31.4c-8.6-8.7-22.7-8.8-31.4-0.2L6.6,238.8C-2.1,247.5-2.2,261.5,6.4,270.2z"/>
	</g>
</g>
<g>
	<g>
		<path class="st0" d="M279.4,271.8l193.4,195.7c4.3,4.4,10,6.6,15.7,6.6c5.7,0,11.4-2.1,15.7-6.4c8.7-8.6,8.8-22.7,0.2-31.4
			L326.6,256.4L506.5,78.6c8.7-8.6,8.8-22.7,0.2-31.4c-8.6-8.7-22.7-8.8-31.4-0.2L279.6,240.4C270.9,249.1,270.8,263.1,279.4,271.8z
			"/>
	</g>
</g>
</svg>
