<?xml version="1.0" encoding="utf-8"?>
<!-- Generator: Adobe Illustrator 21.0.0, SVG Export Plug-In . SVG Version: 6.00 Build 0)  -->
<svg version="1.1" id="Capa_1" xmlns="http://www.w3.org/2000/svg" xmlns:xlink="http://www.w3.org/1999/xlink" x="0px" y="0px"
	 viewBox="0 0 512 512" style="enable-background:new 0 0 512 512;" xml:space="preserve">
<style type="text/css">
	.st0{fill:#FFFFFF;}
</style>
<g>
	<g>
		<path class="st0" d="M505.5,240.3L310.9,45.7c-8.7-8.7-22.7-8.7-31.4,0c-8.7,8.7-8.7,22.7,0,31.4L458.4,256L279.5,434.9
			c-8.7,8.7-8.7,22.7,0,31.4c4.3,4.3,10,6.5,15.7,6.5s11.4-2.2,15.7-6.5l194.6-194.6C514.2,263,514.2,249,505.5,240.3z"/>
	</g>
</g>
<g>
	<g>
		<path class="st0" d="M232.5,240.3L37.9,45.7c-8.7-8.7-22.7-8.7-31.4,0c-8.7,8.7-8.7,22.7,0,31.4L185.4,256L6.5,434.9
			c-8.7,8.7-8.7,22.7,0,31.4c4.3,4.3,10,6.5,15.7,6.5s11.4-2.2,15.7-6.5l194.6-194.6C241.1,263,241.1,249,232.5,240.3z"/>
	</g>
</g>
</svg>
