<?xml version="1.0" encoding="utf-8"?>
<!-- Generator: Adobe Illustrator 21.0.0, SVG Export Plug-In . SVG Version: 6.00 Build 0)  -->
<svg version="1.1" id="Слой_1" xmlns="http://www.w3.org/2000/svg" xmlns:xlink="http://www.w3.org/1999/xlink" x="0px" y="0px"
	 viewBox="0 0 16 16" style="enable-background:new 0 0 16 16;" xml:space="preserve">
<style type="text/css">
	.st0{fill:#FFFFFF;}
</style>
<path class="st0" d="M15.7,14.3l-4.2-4.2c-0.2-0.2-0.5-0.3-0.8-0.3C11.5,8.8,12,7.4,12,6c0-3.3-2.7-6-6-6S0,2.7,0,6s2.7,6,6,6
	c1.4,0,2.8-0.5,3.8-1.4c0,0.3,0,0.6,0.3,0.8l4.2,4.2c0.2,0.2,0.5,0.3,0.7,0.3s0.5-0.1,0.7-0.3C16.1,15.3,16.1,14.7,15.7,14.3z
	 M6,10.5c-2.5,0-4.5-2-4.5-4.5s2-4.5,4.5-4.5s4.5,2,4.5,4.5S8.5,10.5,6,10.5z"/>
</svg>
